G04 #@! TF.GenerationSoftware,KiCad,Pcbnew,(5.1.6-14-g3ac0951e1-dirty)*
G04 #@! TF.CreationDate,2021-04-17T10:51:59+02:00*
G04 #@! TF.ProjectId,A003.0000017200_DM.ADS7142.BOB,41303033-2e30-4303-9030-303137323030,rev?*
G04 #@! TF.SameCoordinates,Original*
G04 #@! TF.FileFunction,Soldermask,Top*
G04 #@! TF.FilePolarity,Negative*
%FSLAX46Y46*%
G04 Gerber Fmt 4.6, Leading zero omitted, Abs format (unit mm)*
G04 Created by KiCad (PCBNEW (5.1.6-14-g3ac0951e1-dirty)) date 2021-04-17 10:51:59*
%MOMM*%
%LPD*%
G01*
G04 APERTURE LIST*
%ADD10C,0.100000*%
G04 APERTURE END LIST*
D10*
G36*
X137422520Y-85367586D02*
G01*
X137586310Y-85435430D01*
X137733717Y-85533924D01*
X137859076Y-85659283D01*
X137957570Y-85806690D01*
X138025414Y-85970480D01*
X138060000Y-86144358D01*
X138060000Y-86321642D01*
X138025414Y-86495520D01*
X137957570Y-86659310D01*
X137859076Y-86806717D01*
X137733717Y-86932076D01*
X137586310Y-87030570D01*
X137586309Y-87030571D01*
X137586308Y-87030571D01*
X137422520Y-87098414D01*
X137248644Y-87133000D01*
X137071356Y-87133000D01*
X136897480Y-87098414D01*
X136733692Y-87030571D01*
X136733691Y-87030571D01*
X136733690Y-87030570D01*
X136586283Y-86932076D01*
X136460924Y-86806717D01*
X136362430Y-86659310D01*
X136294586Y-86495520D01*
X136260000Y-86321642D01*
X136260000Y-86144358D01*
X136294586Y-85970480D01*
X136362430Y-85806690D01*
X136460924Y-85659283D01*
X136586283Y-85533924D01*
X136733690Y-85435430D01*
X136897480Y-85367586D01*
X137071356Y-85333000D01*
X137248644Y-85333000D01*
X137422520Y-85367586D01*
G37*
G36*
X127262520Y-85367586D02*
G01*
X127426310Y-85435430D01*
X127573717Y-85533924D01*
X127699076Y-85659283D01*
X127797570Y-85806690D01*
X127865414Y-85970480D01*
X127900000Y-86144358D01*
X127900000Y-86321642D01*
X127865414Y-86495520D01*
X127797570Y-86659310D01*
X127699076Y-86806717D01*
X127573717Y-86932076D01*
X127426310Y-87030570D01*
X127426309Y-87030571D01*
X127426308Y-87030571D01*
X127262520Y-87098414D01*
X127088644Y-87133000D01*
X126911356Y-87133000D01*
X126737480Y-87098414D01*
X126573692Y-87030571D01*
X126573691Y-87030571D01*
X126573690Y-87030570D01*
X126426283Y-86932076D01*
X126300924Y-86806717D01*
X126202430Y-86659310D01*
X126134586Y-86495520D01*
X126100000Y-86321642D01*
X126100000Y-86144358D01*
X126134586Y-85970480D01*
X126202430Y-85806690D01*
X126300924Y-85659283D01*
X126426283Y-85533924D01*
X126573690Y-85435430D01*
X126737480Y-85367586D01*
X126911356Y-85333000D01*
X127088644Y-85333000D01*
X127262520Y-85367586D01*
G37*
G36*
X131564000Y-84870000D02*
G01*
X130564000Y-84870000D01*
X130564000Y-84270000D01*
X131564000Y-84270000D01*
X131564000Y-84870000D01*
G37*
G36*
X134612000Y-84870000D02*
G01*
X133612000Y-84870000D01*
X133612000Y-84270000D01*
X134612000Y-84270000D01*
X134612000Y-84870000D01*
G37*
G36*
X130040000Y-84870000D02*
G01*
X129040000Y-84870000D01*
X129040000Y-84270000D01*
X130040000Y-84270000D01*
X130040000Y-84870000D01*
G37*
G36*
X127262520Y-82827586D02*
G01*
X127426310Y-82895430D01*
X127573717Y-82993924D01*
X127699076Y-83119283D01*
X127797570Y-83266690D01*
X127865414Y-83430480D01*
X127900000Y-83604358D01*
X127900000Y-83781642D01*
X127865414Y-83955520D01*
X127797570Y-84119310D01*
X127699076Y-84266717D01*
X127573717Y-84392076D01*
X127426310Y-84490570D01*
X127426309Y-84490571D01*
X127426308Y-84490571D01*
X127262520Y-84558414D01*
X127088644Y-84593000D01*
X126911356Y-84593000D01*
X126737480Y-84558414D01*
X126573692Y-84490571D01*
X126573691Y-84490571D01*
X126573690Y-84490570D01*
X126426283Y-84392076D01*
X126300924Y-84266717D01*
X126202430Y-84119310D01*
X126134586Y-83955520D01*
X126100000Y-83781642D01*
X126100000Y-83604358D01*
X126134586Y-83430480D01*
X126202430Y-83266690D01*
X126300924Y-83119283D01*
X126426283Y-82993924D01*
X126573690Y-82895430D01*
X126737480Y-82827586D01*
X126911356Y-82793000D01*
X127088644Y-82793000D01*
X127262520Y-82827586D01*
G37*
G36*
X137422520Y-82827586D02*
G01*
X137586310Y-82895430D01*
X137733717Y-82993924D01*
X137859076Y-83119283D01*
X137957570Y-83266690D01*
X138025414Y-83430480D01*
X138060000Y-83604358D01*
X138060000Y-83781642D01*
X138025414Y-83955520D01*
X137957570Y-84119310D01*
X137859076Y-84266717D01*
X137733717Y-84392076D01*
X137586310Y-84490570D01*
X137586309Y-84490571D01*
X137586308Y-84490571D01*
X137422520Y-84558414D01*
X137248644Y-84593000D01*
X137071356Y-84593000D01*
X136897480Y-84558414D01*
X136733692Y-84490571D01*
X136733691Y-84490571D01*
X136733690Y-84490570D01*
X136586283Y-84392076D01*
X136460924Y-84266717D01*
X136362430Y-84119310D01*
X136294586Y-83955520D01*
X136260000Y-83781642D01*
X136260000Y-83604358D01*
X136294586Y-83430480D01*
X136362430Y-83266690D01*
X136460924Y-83119283D01*
X136586283Y-82993924D01*
X136733690Y-82895430D01*
X136897480Y-82827586D01*
X137071356Y-82793000D01*
X137248644Y-82793000D01*
X137422520Y-82827586D01*
G37*
G36*
X131564000Y-83370000D02*
G01*
X130564000Y-83370000D01*
X130564000Y-82770000D01*
X131564000Y-82770000D01*
X131564000Y-83370000D01*
G37*
G36*
X130040000Y-83370000D02*
G01*
X129040000Y-83370000D01*
X129040000Y-82770000D01*
X130040000Y-82770000D01*
X130040000Y-83370000D01*
G37*
G36*
X134612000Y-83370000D02*
G01*
X133612000Y-83370000D01*
X133612000Y-82770000D01*
X134612000Y-82770000D01*
X134612000Y-83370000D01*
G37*
G36*
X137422520Y-80287586D02*
G01*
X137586310Y-80355430D01*
X137733717Y-80453924D01*
X137859076Y-80579283D01*
X137957570Y-80726690D01*
X137957571Y-80726692D01*
X138025414Y-80890480D01*
X138033872Y-80932999D01*
X138060000Y-81064358D01*
X138060000Y-81241642D01*
X138025414Y-81415520D01*
X137957570Y-81579310D01*
X137859076Y-81726717D01*
X137733717Y-81852076D01*
X137586310Y-81950570D01*
X137586309Y-81950571D01*
X137586308Y-81950571D01*
X137422520Y-82018414D01*
X137248644Y-82053000D01*
X137071356Y-82053000D01*
X136897480Y-82018414D01*
X136733692Y-81950571D01*
X136733691Y-81950571D01*
X136733690Y-81950570D01*
X136586283Y-81852076D01*
X136460924Y-81726717D01*
X136362430Y-81579310D01*
X136294586Y-81415520D01*
X136260000Y-81241642D01*
X136260000Y-81064358D01*
X136286129Y-80932999D01*
X136294586Y-80890480D01*
X136362429Y-80726692D01*
X136362430Y-80726690D01*
X136460924Y-80579283D01*
X136586283Y-80453924D01*
X136733690Y-80355430D01*
X136897480Y-80287586D01*
X137071356Y-80253000D01*
X137248644Y-80253000D01*
X137422520Y-80287586D01*
G37*
G36*
X127262520Y-80287586D02*
G01*
X127426310Y-80355430D01*
X127573717Y-80453924D01*
X127699076Y-80579283D01*
X127797570Y-80726690D01*
X127797571Y-80726692D01*
X127865414Y-80890480D01*
X127873872Y-80932999D01*
X127900000Y-81064358D01*
X127900000Y-81241642D01*
X127865414Y-81415520D01*
X127797570Y-81579310D01*
X127699076Y-81726717D01*
X127573717Y-81852076D01*
X127426310Y-81950570D01*
X127426309Y-81950571D01*
X127426308Y-81950571D01*
X127262520Y-82018414D01*
X127088644Y-82053000D01*
X126911356Y-82053000D01*
X126737480Y-82018414D01*
X126573692Y-81950571D01*
X126573691Y-81950571D01*
X126573690Y-81950570D01*
X126426283Y-81852076D01*
X126300924Y-81726717D01*
X126202430Y-81579310D01*
X126134586Y-81415520D01*
X126100000Y-81241642D01*
X126100000Y-81064358D01*
X126126129Y-80932999D01*
X126134586Y-80890480D01*
X126202429Y-80726692D01*
X126202430Y-80726690D01*
X126300924Y-80579283D01*
X126426283Y-80453924D01*
X126573690Y-80355430D01*
X126737480Y-80287586D01*
X126911356Y-80253000D01*
X127088644Y-80253000D01*
X127262520Y-80287586D01*
G37*
G36*
X132152999Y-78833001D02*
G01*
X132155401Y-78857387D01*
X132162514Y-78880836D01*
X132174065Y-78902447D01*
X132189610Y-78921389D01*
X132208552Y-78936934D01*
X132230163Y-78948485D01*
X132253612Y-78955598D01*
X132277998Y-78958000D01*
X132952999Y-78958000D01*
X132952999Y-80808000D01*
X132277998Y-80808000D01*
X132253612Y-80810402D01*
X132230163Y-80817515D01*
X132208552Y-80829066D01*
X132189610Y-80844611D01*
X132174065Y-80863553D01*
X132162514Y-80885164D01*
X132155401Y-80908613D01*
X132152999Y-80932999D01*
X132152999Y-81133000D01*
X131753001Y-81133000D01*
X131753001Y-80932999D01*
X131750599Y-80908613D01*
X131743486Y-80885164D01*
X131731935Y-80863553D01*
X131716390Y-80844611D01*
X131697448Y-80829066D01*
X131675837Y-80817515D01*
X131652388Y-80810402D01*
X131628002Y-80808000D01*
X130953001Y-80808000D01*
X130953001Y-79432999D01*
X131602999Y-79432999D01*
X131602999Y-80333001D01*
X131605401Y-80357387D01*
X131612514Y-80380836D01*
X131624065Y-80402447D01*
X131639610Y-80421389D01*
X131658552Y-80436934D01*
X131680163Y-80448485D01*
X131703612Y-80455598D01*
X131727998Y-80458000D01*
X132178002Y-80458000D01*
X132202388Y-80455598D01*
X132225837Y-80448485D01*
X132247448Y-80436934D01*
X132266390Y-80421389D01*
X132281935Y-80402447D01*
X132293486Y-80380836D01*
X132300599Y-80357387D01*
X132303001Y-80333001D01*
X132303001Y-79432999D01*
X132300599Y-79408613D01*
X132293486Y-79385164D01*
X132281935Y-79363553D01*
X132266390Y-79344611D01*
X132247448Y-79329066D01*
X132225837Y-79317515D01*
X132202388Y-79310402D01*
X132178002Y-79308000D01*
X131727998Y-79308000D01*
X131703612Y-79310402D01*
X131680163Y-79317515D01*
X131658552Y-79329066D01*
X131639610Y-79344611D01*
X131624065Y-79363553D01*
X131612514Y-79385164D01*
X131605401Y-79408613D01*
X131602999Y-79432999D01*
X130953001Y-79432999D01*
X130953001Y-78958000D01*
X131628002Y-78958000D01*
X131652388Y-78955598D01*
X131675837Y-78948485D01*
X131697448Y-78936934D01*
X131716390Y-78921389D01*
X131731935Y-78902447D01*
X131743486Y-78880836D01*
X131750599Y-78857387D01*
X131753001Y-78833001D01*
X131753001Y-78633000D01*
X132152999Y-78633000D01*
X132152999Y-78833001D01*
G37*
G36*
X135882000Y-80425000D02*
G01*
X134882000Y-80425000D01*
X134882000Y-79825000D01*
X135882000Y-79825000D01*
X135882000Y-80425000D01*
G37*
G36*
X134358000Y-79663000D02*
G01*
X133358000Y-79663000D01*
X133358000Y-79063000D01*
X134358000Y-79063000D01*
X134358000Y-79663000D01*
G37*
G36*
X137422520Y-77747586D02*
G01*
X137586310Y-77815430D01*
X137733717Y-77913924D01*
X137859076Y-78039283D01*
X137957570Y-78186690D01*
X137957571Y-78186692D01*
X138025414Y-78350480D01*
X138060000Y-78524356D01*
X138060000Y-78701644D01*
X138025414Y-78875520D01*
X138014261Y-78902447D01*
X137957570Y-79039310D01*
X137859076Y-79186717D01*
X137733717Y-79312076D01*
X137586310Y-79410570D01*
X137586309Y-79410571D01*
X137586308Y-79410571D01*
X137422520Y-79478414D01*
X137248644Y-79513000D01*
X137071356Y-79513000D01*
X136897480Y-79478414D01*
X136733692Y-79410571D01*
X136733691Y-79410571D01*
X136733690Y-79410570D01*
X136586283Y-79312076D01*
X136460924Y-79186717D01*
X136362430Y-79039310D01*
X136305740Y-78902447D01*
X136294586Y-78875520D01*
X136260000Y-78701644D01*
X136260000Y-78524356D01*
X136294586Y-78350480D01*
X136362429Y-78186692D01*
X136362430Y-78186690D01*
X136460924Y-78039283D01*
X136586283Y-77913924D01*
X136733690Y-77815430D01*
X136897480Y-77747586D01*
X137071356Y-77713000D01*
X137248644Y-77713000D01*
X137422520Y-77747586D01*
G37*
G36*
X127262520Y-77747586D02*
G01*
X127426310Y-77815430D01*
X127573717Y-77913924D01*
X127699076Y-78039283D01*
X127797570Y-78186690D01*
X127797571Y-78186692D01*
X127865414Y-78350480D01*
X127900000Y-78524356D01*
X127900000Y-78701644D01*
X127865414Y-78875520D01*
X127854261Y-78902447D01*
X127797570Y-79039310D01*
X127699076Y-79186717D01*
X127573717Y-79312076D01*
X127426310Y-79410570D01*
X127426309Y-79410571D01*
X127426308Y-79410571D01*
X127262520Y-79478414D01*
X127088644Y-79513000D01*
X126911356Y-79513000D01*
X126737480Y-79478414D01*
X126573692Y-79410571D01*
X126573691Y-79410571D01*
X126573690Y-79410570D01*
X126426283Y-79312076D01*
X126300924Y-79186717D01*
X126202430Y-79039310D01*
X126145740Y-78902447D01*
X126134586Y-78875520D01*
X126100000Y-78701644D01*
X126100000Y-78524356D01*
X126134586Y-78350480D01*
X126202429Y-78186692D01*
X126202430Y-78186690D01*
X126300924Y-78039283D01*
X126426283Y-77913924D01*
X126573690Y-77815430D01*
X126737480Y-77747586D01*
X126911356Y-77713000D01*
X127088644Y-77713000D01*
X127262520Y-77747586D01*
G37*
G36*
X135882000Y-78925000D02*
G01*
X134882000Y-78925000D01*
X134882000Y-78325000D01*
X135882000Y-78325000D01*
X135882000Y-78925000D01*
G37*
G36*
X134358000Y-78163000D02*
G01*
X133358000Y-78163000D01*
X133358000Y-77563000D01*
X134358000Y-77563000D01*
X134358000Y-78163000D01*
G37*
G36*
X138060000Y-76973000D02*
G01*
X136260000Y-76973000D01*
X136260000Y-75173000D01*
X138060000Y-75173000D01*
X138060000Y-76973000D01*
G37*
G36*
X127900000Y-76973000D02*
G01*
X126100000Y-76973000D01*
X126100000Y-75173000D01*
X127900000Y-75173000D01*
X127900000Y-76973000D01*
G37*
G36*
X130129000Y-76498000D02*
G01*
X129229000Y-76498000D01*
X129229000Y-75648000D01*
X130129000Y-75648000D01*
X130129000Y-76498000D01*
G37*
G36*
X131629000Y-76498000D02*
G01*
X130729000Y-76498000D01*
X130729000Y-75648000D01*
X131629000Y-75648000D01*
X131629000Y-76498000D01*
G37*
G36*
X133177000Y-76498000D02*
G01*
X132277000Y-76498000D01*
X132277000Y-75648000D01*
X133177000Y-75648000D01*
X133177000Y-76498000D01*
G37*
G36*
X134677000Y-76498000D02*
G01*
X133777000Y-76498000D01*
X133777000Y-75648000D01*
X134677000Y-75648000D01*
X134677000Y-76498000D01*
G37*
M02*
