G04 #@! TF.GenerationSoftware,KiCad,Pcbnew,(5.1.6-14-g3ac0951e1-dirty)*
G04 #@! TF.CreationDate,2021-04-17T10:51:59+02:00*
G04 #@! TF.ProjectId,A003.0000017200_DM.ADS7142.BOB,41303033-2e30-4303-9030-303137323030,rev?*
G04 #@! TF.SameCoordinates,Original*
G04 #@! TF.FileFunction,Other,Fab,Top*
%FSLAX46Y46*%
G04 Gerber Fmt 4.6, Leading zero omitted, Abs format (unit mm)*
G04 Created by KiCad (PCBNEW (5.1.6-14-g3ac0951e1-dirty)) date 2021-04-17 10:51:59*
%MOMM*%
%LPD*%
G01*
G04 APERTURE LIST*
%ADD10C,0.100000*%
%ADD11C,0.152400*%
%ADD12C,0.150000*%
%ADD13C,0.075000*%
G04 APERTURE END LIST*
D10*
X134512000Y-84620000D02*
X133712000Y-84620000D01*
X134512000Y-83020000D02*
X134512000Y-84620000D01*
X133712000Y-83020000D02*
X134512000Y-83020000D01*
X133712000Y-84620000D02*
X133712000Y-83020000D01*
X134982000Y-78575000D02*
X135782000Y-78575000D01*
X134982000Y-80175000D02*
X134982000Y-78575000D01*
X135782000Y-80175000D02*
X134982000Y-80175000D01*
X135782000Y-78575000D02*
X135782000Y-80175000D01*
X133458000Y-77813000D02*
X134258000Y-77813000D01*
X133458000Y-79413000D02*
X133458000Y-77813000D01*
X134258000Y-79413000D02*
X133458000Y-79413000D01*
X134258000Y-77813000D02*
X134258000Y-79413000D01*
D11*
X132728000Y-80908002D02*
X132728000Y-78857998D01*
X131178000Y-80908002D02*
X132728000Y-80908002D01*
X131178000Y-80908002D02*
X131178000Y-78857998D01*
X131178000Y-78857998D02*
X132728000Y-78857998D01*
X131603001Y-79182999D02*
G75*
G03*
X131603001Y-79182999I-150000J0D01*
G01*
D10*
X129140000Y-83020000D02*
X129940000Y-83020000D01*
X129140000Y-84620000D02*
X129140000Y-83020000D01*
X129940000Y-84620000D02*
X129140000Y-84620000D01*
X129940000Y-83020000D02*
X129940000Y-84620000D01*
X131464000Y-84620000D02*
X130664000Y-84620000D01*
X131464000Y-83020000D02*
X131464000Y-84620000D01*
X130664000Y-83020000D02*
X131464000Y-83020000D01*
X130664000Y-84620000D02*
X130664000Y-83020000D01*
X134277000Y-76473000D02*
X132677000Y-76473000D01*
X132677000Y-76473000D02*
X132677000Y-75673000D01*
X132677000Y-75673000D02*
X134277000Y-75673000D01*
X134277000Y-75673000D02*
X134277000Y-76473000D01*
X129629000Y-75673000D02*
X131229000Y-75673000D01*
X131229000Y-75673000D02*
X131229000Y-76473000D01*
X131229000Y-76473000D02*
X129629000Y-76473000D01*
X129629000Y-76473000D02*
X129629000Y-75673000D01*
D12*
X136064380Y-86748571D02*
X136064380Y-87320000D01*
X136064380Y-87034285D02*
X135064380Y-87034285D01*
X135207238Y-87129523D01*
X135302476Y-87224761D01*
X135350095Y-87320000D01*
X135064380Y-86129523D02*
X135064380Y-86034285D01*
X135112000Y-85939047D01*
X135159619Y-85891428D01*
X135254857Y-85843809D01*
X135445333Y-85796190D01*
X135683428Y-85796190D01*
X135873904Y-85843809D01*
X135969142Y-85891428D01*
X136016761Y-85939047D01*
X136064380Y-86034285D01*
X136064380Y-86129523D01*
X136016761Y-86224761D01*
X135969142Y-86272380D01*
X135873904Y-86320000D01*
X135683428Y-86367619D01*
X135445333Y-86367619D01*
X135254857Y-86320000D01*
X135159619Y-86272380D01*
X135112000Y-86224761D01*
X135064380Y-86129523D01*
X136064380Y-85367619D02*
X135064380Y-85367619D01*
X135683428Y-85272380D02*
X136064380Y-84986666D01*
X135397714Y-84986666D02*
X135778666Y-85367619D01*
X135016761Y-83081904D02*
X136302476Y-83939047D01*
X136064380Y-81462857D02*
X136064380Y-82034285D01*
X136064380Y-81748571D02*
X135064380Y-81748571D01*
X135207238Y-81843809D01*
X135302476Y-81939047D01*
X135350095Y-82034285D01*
X136064380Y-81081904D02*
X135064380Y-80320000D01*
X135064380Y-80939047D02*
X135112000Y-80843809D01*
X135207238Y-80796190D01*
X135302476Y-80843809D01*
X135350095Y-80939047D01*
X135302476Y-81034285D01*
X135207238Y-81081904D01*
X135112000Y-81034285D01*
X135064380Y-80939047D01*
X136016761Y-80367619D02*
X135921523Y-80320000D01*
X135826285Y-80367619D01*
X135778666Y-80462857D01*
X135826285Y-80558095D01*
X135921523Y-80605714D01*
X136016761Y-80558095D01*
X136064380Y-80462857D01*
X136016761Y-80367619D01*
D13*
X134292952Y-84458095D02*
X134102476Y-84591428D01*
X134292952Y-84686666D02*
X133892952Y-84686666D01*
X133892952Y-84534285D01*
X133912000Y-84496190D01*
X133931047Y-84477142D01*
X133969142Y-84458095D01*
X134026285Y-84458095D01*
X134064380Y-84477142D01*
X134083428Y-84496190D01*
X134102476Y-84534285D01*
X134102476Y-84686666D01*
X134292952Y-84077142D02*
X134292952Y-84305714D01*
X134292952Y-84191428D02*
X133892952Y-84191428D01*
X133950095Y-84229523D01*
X133988190Y-84267619D01*
X134007238Y-84305714D01*
X133892952Y-83829523D02*
X133892952Y-83791428D01*
X133912000Y-83753333D01*
X133931047Y-83734285D01*
X133969142Y-83715238D01*
X134045333Y-83696190D01*
X134140571Y-83696190D01*
X134216761Y-83715238D01*
X134254857Y-83734285D01*
X134273904Y-83753333D01*
X134292952Y-83791428D01*
X134292952Y-83829523D01*
X134273904Y-83867619D01*
X134254857Y-83886666D01*
X134216761Y-83905714D01*
X134140571Y-83924761D01*
X134045333Y-83924761D01*
X133969142Y-83905714D01*
X133931047Y-83886666D01*
X133912000Y-83867619D01*
X133892952Y-83829523D01*
X133892952Y-83448571D02*
X133892952Y-83410476D01*
X133912000Y-83372380D01*
X133931047Y-83353333D01*
X133969142Y-83334285D01*
X134045333Y-83315238D01*
X134140571Y-83315238D01*
X134216761Y-83334285D01*
X134254857Y-83353333D01*
X134273904Y-83372380D01*
X134292952Y-83410476D01*
X134292952Y-83448571D01*
X134273904Y-83486666D01*
X134254857Y-83505714D01*
X134216761Y-83524761D01*
X134140571Y-83543809D01*
X134045333Y-83543809D01*
X133969142Y-83524761D01*
X133931047Y-83505714D01*
X133912000Y-83486666D01*
X133892952Y-83448571D01*
X133892952Y-82953333D02*
X133892952Y-83143809D01*
X134083428Y-83162857D01*
X134064380Y-83143809D01*
X134045333Y-83105714D01*
X134045333Y-83010476D01*
X134064380Y-82972380D01*
X134083428Y-82953333D01*
X134121523Y-82934285D01*
X134216761Y-82934285D01*
X134254857Y-82953333D01*
X134273904Y-82972380D01*
X134292952Y-83010476D01*
X134292952Y-83105714D01*
X134273904Y-83143809D01*
X134254857Y-83162857D01*
D12*
X133334380Y-83160714D02*
X133334380Y-82541666D01*
X133715333Y-82875000D01*
X133715333Y-82732142D01*
X133762952Y-82636904D01*
X133810571Y-82589285D01*
X133905809Y-82541666D01*
X134143904Y-82541666D01*
X134239142Y-82589285D01*
X134286761Y-82636904D01*
X134334380Y-82732142D01*
X134334380Y-83017857D01*
X134286761Y-83113095D01*
X134239142Y-83160714D01*
X134239142Y-82113095D02*
X134286761Y-82065476D01*
X134334380Y-82113095D01*
X134286761Y-82160714D01*
X134239142Y-82113095D01*
X134334380Y-82113095D01*
X133334380Y-81732142D02*
X133334380Y-81113095D01*
X133715333Y-81446428D01*
X133715333Y-81303571D01*
X133762952Y-81208333D01*
X133810571Y-81160714D01*
X133905809Y-81113095D01*
X134143904Y-81113095D01*
X134239142Y-81160714D01*
X134286761Y-81208333D01*
X134334380Y-81303571D01*
X134334380Y-81589285D01*
X134286761Y-81684523D01*
X134239142Y-81732142D01*
X134334380Y-80684523D02*
X133334380Y-80684523D01*
X133953428Y-80589285D02*
X134334380Y-80303571D01*
X133667714Y-80303571D02*
X134048666Y-80684523D01*
X133286761Y-78398809D02*
X134572476Y-79255952D01*
X134334380Y-76779761D02*
X134334380Y-77351190D01*
X134334380Y-77065476D02*
X133334380Y-77065476D01*
X133477238Y-77160714D01*
X133572476Y-77255952D01*
X133620095Y-77351190D01*
X134334380Y-76398809D02*
X133334380Y-75636904D01*
X133334380Y-76255952D02*
X133382000Y-76160714D01*
X133477238Y-76113095D01*
X133572476Y-76160714D01*
X133620095Y-76255952D01*
X133572476Y-76351190D01*
X133477238Y-76398809D01*
X133382000Y-76351190D01*
X133334380Y-76255952D01*
X134286761Y-75684523D02*
X134191523Y-75636904D01*
X134096285Y-75684523D01*
X134048666Y-75779761D01*
X134096285Y-75875000D01*
X134191523Y-75922619D01*
X134286761Y-75875000D01*
X134334380Y-75779761D01*
X134286761Y-75684523D01*
D13*
X135562952Y-80013095D02*
X135372476Y-80146428D01*
X135562952Y-80241666D02*
X135162952Y-80241666D01*
X135162952Y-80089285D01*
X135182000Y-80051190D01*
X135201047Y-80032142D01*
X135239142Y-80013095D01*
X135296285Y-80013095D01*
X135334380Y-80032142D01*
X135353428Y-80051190D01*
X135372476Y-80089285D01*
X135372476Y-80241666D01*
X135562952Y-79632142D02*
X135562952Y-79860714D01*
X135562952Y-79746428D02*
X135162952Y-79746428D01*
X135220095Y-79784523D01*
X135258190Y-79822619D01*
X135277238Y-79860714D01*
X135162952Y-79384523D02*
X135162952Y-79346428D01*
X135182000Y-79308333D01*
X135201047Y-79289285D01*
X135239142Y-79270238D01*
X135315333Y-79251190D01*
X135410571Y-79251190D01*
X135486761Y-79270238D01*
X135524857Y-79289285D01*
X135543904Y-79308333D01*
X135562952Y-79346428D01*
X135562952Y-79384523D01*
X135543904Y-79422619D01*
X135524857Y-79441666D01*
X135486761Y-79460714D01*
X135410571Y-79479761D01*
X135315333Y-79479761D01*
X135239142Y-79460714D01*
X135201047Y-79441666D01*
X135182000Y-79422619D01*
X135162952Y-79384523D01*
X135162952Y-79003571D02*
X135162952Y-78965476D01*
X135182000Y-78927380D01*
X135201047Y-78908333D01*
X135239142Y-78889285D01*
X135315333Y-78870238D01*
X135410571Y-78870238D01*
X135486761Y-78889285D01*
X135524857Y-78908333D01*
X135543904Y-78927380D01*
X135562952Y-78965476D01*
X135562952Y-79003571D01*
X135543904Y-79041666D01*
X135524857Y-79060714D01*
X135486761Y-79079761D01*
X135410571Y-79098809D01*
X135315333Y-79098809D01*
X135239142Y-79079761D01*
X135201047Y-79060714D01*
X135182000Y-79041666D01*
X135162952Y-79003571D01*
X135296285Y-78527380D02*
X135562952Y-78527380D01*
X135143904Y-78622619D02*
X135429619Y-78717857D01*
X135429619Y-78470238D01*
D12*
X131810380Y-82398714D02*
X131810380Y-81779666D01*
X132191333Y-82113000D01*
X132191333Y-81970142D01*
X132238952Y-81874904D01*
X132286571Y-81827285D01*
X132381809Y-81779666D01*
X132619904Y-81779666D01*
X132715142Y-81827285D01*
X132762761Y-81874904D01*
X132810380Y-81970142D01*
X132810380Y-82255857D01*
X132762761Y-82351095D01*
X132715142Y-82398714D01*
X132715142Y-81351095D02*
X132762761Y-81303476D01*
X132810380Y-81351095D01*
X132762761Y-81398714D01*
X132715142Y-81351095D01*
X132810380Y-81351095D01*
X131810380Y-80970142D02*
X131810380Y-80351095D01*
X132191333Y-80684428D01*
X132191333Y-80541571D01*
X132238952Y-80446333D01*
X132286571Y-80398714D01*
X132381809Y-80351095D01*
X132619904Y-80351095D01*
X132715142Y-80398714D01*
X132762761Y-80446333D01*
X132810380Y-80541571D01*
X132810380Y-80827285D01*
X132762761Y-80922523D01*
X132715142Y-80970142D01*
X132810380Y-79922523D02*
X131810380Y-79922523D01*
X132429428Y-79827285D02*
X132810380Y-79541571D01*
X132143714Y-79541571D02*
X132524666Y-79922523D01*
X131762761Y-77636809D02*
X133048476Y-78493952D01*
X132810380Y-76017761D02*
X132810380Y-76589190D01*
X132810380Y-76303476D02*
X131810380Y-76303476D01*
X131953238Y-76398714D01*
X132048476Y-76493952D01*
X132096095Y-76589190D01*
X132810380Y-75636809D02*
X131810380Y-74874904D01*
X131810380Y-75493952D02*
X131858000Y-75398714D01*
X131953238Y-75351095D01*
X132048476Y-75398714D01*
X132096095Y-75493952D01*
X132048476Y-75589190D01*
X131953238Y-75636809D01*
X131858000Y-75589190D01*
X131810380Y-75493952D01*
X132762761Y-74922523D02*
X132667523Y-74874904D01*
X132572285Y-74922523D01*
X132524666Y-75017761D01*
X132572285Y-75113000D01*
X132667523Y-75160619D01*
X132762761Y-75113000D01*
X132810380Y-75017761D01*
X132762761Y-74922523D01*
D13*
X134038952Y-79251095D02*
X133848476Y-79384428D01*
X134038952Y-79479666D02*
X133638952Y-79479666D01*
X133638952Y-79327285D01*
X133658000Y-79289190D01*
X133677047Y-79270142D01*
X133715142Y-79251095D01*
X133772285Y-79251095D01*
X133810380Y-79270142D01*
X133829428Y-79289190D01*
X133848476Y-79327285D01*
X133848476Y-79479666D01*
X134038952Y-78870142D02*
X134038952Y-79098714D01*
X134038952Y-78984428D02*
X133638952Y-78984428D01*
X133696095Y-79022523D01*
X133734190Y-79060619D01*
X133753238Y-79098714D01*
X133638952Y-78622523D02*
X133638952Y-78584428D01*
X133658000Y-78546333D01*
X133677047Y-78527285D01*
X133715142Y-78508238D01*
X133791333Y-78489190D01*
X133886571Y-78489190D01*
X133962761Y-78508238D01*
X134000857Y-78527285D01*
X134019904Y-78546333D01*
X134038952Y-78584428D01*
X134038952Y-78622523D01*
X134019904Y-78660619D01*
X134000857Y-78679666D01*
X133962761Y-78698714D01*
X133886571Y-78717761D01*
X133791333Y-78717761D01*
X133715142Y-78698714D01*
X133677047Y-78679666D01*
X133658000Y-78660619D01*
X133638952Y-78622523D01*
X133638952Y-78241571D02*
X133638952Y-78203476D01*
X133658000Y-78165380D01*
X133677047Y-78146333D01*
X133715142Y-78127285D01*
X133791333Y-78108238D01*
X133886571Y-78108238D01*
X133962761Y-78127285D01*
X134000857Y-78146333D01*
X134019904Y-78165380D01*
X134038952Y-78203476D01*
X134038952Y-78241571D01*
X134019904Y-78279666D01*
X134000857Y-78298714D01*
X133962761Y-78317761D01*
X133886571Y-78336809D01*
X133791333Y-78336809D01*
X133715142Y-78317761D01*
X133677047Y-78298714D01*
X133658000Y-78279666D01*
X133638952Y-78241571D01*
X133638952Y-77974904D02*
X133638952Y-77727285D01*
X133791333Y-77860619D01*
X133791333Y-77803476D01*
X133810380Y-77765380D01*
X133829428Y-77746333D01*
X133867523Y-77727285D01*
X133962761Y-77727285D01*
X134000857Y-77746333D01*
X134019904Y-77765380D01*
X134038952Y-77803476D01*
X134038952Y-77917761D01*
X134019904Y-77955857D01*
X134000857Y-77974904D01*
D12*
X128858952Y-82099666D02*
X129335142Y-82099666D01*
X128763714Y-82385380D02*
X129097047Y-81385380D01*
X129430380Y-82385380D01*
X129763714Y-82385380D02*
X129763714Y-81385380D01*
X130001809Y-81385380D01*
X130144666Y-81433000D01*
X130239904Y-81528238D01*
X130287523Y-81623476D01*
X130335142Y-81813952D01*
X130335142Y-81956809D01*
X130287523Y-82147285D01*
X130239904Y-82242523D01*
X130144666Y-82337761D01*
X130001809Y-82385380D01*
X129763714Y-82385380D01*
X130716095Y-82337761D02*
X130858952Y-82385380D01*
X131097047Y-82385380D01*
X131192285Y-82337761D01*
X131239904Y-82290142D01*
X131287523Y-82194904D01*
X131287523Y-82099666D01*
X131239904Y-82004428D01*
X131192285Y-81956809D01*
X131097047Y-81909190D01*
X130906571Y-81861571D01*
X130811333Y-81813952D01*
X130763714Y-81766333D01*
X130716095Y-81671095D01*
X130716095Y-81575857D01*
X130763714Y-81480619D01*
X130811333Y-81433000D01*
X130906571Y-81385380D01*
X131144666Y-81385380D01*
X131287523Y-81433000D01*
X131620857Y-81385380D02*
X132287523Y-81385380D01*
X131858952Y-82385380D01*
X133192285Y-82385380D02*
X132620857Y-82385380D01*
X132906571Y-82385380D02*
X132906571Y-81385380D01*
X132811333Y-81528238D01*
X132716095Y-81623476D01*
X132620857Y-81671095D01*
X134049428Y-81718714D02*
X134049428Y-82385380D01*
X133811333Y-81337761D02*
X133573238Y-82052047D01*
X134192285Y-82052047D01*
X134525619Y-81480619D02*
X134573238Y-81433000D01*
X134668476Y-81385380D01*
X134906571Y-81385380D01*
X135001809Y-81433000D01*
X135049428Y-81480619D01*
X135097047Y-81575857D01*
X135097047Y-81671095D01*
X135049428Y-81813952D01*
X134478000Y-82385380D01*
X135097047Y-82385380D01*
X128492380Y-85105714D02*
X127492380Y-85105714D01*
X127492380Y-84867619D01*
X127540000Y-84724761D01*
X127635238Y-84629523D01*
X127730476Y-84581904D01*
X127920952Y-84534285D01*
X128063809Y-84534285D01*
X128254285Y-84581904D01*
X128349523Y-84629523D01*
X128444761Y-84724761D01*
X128492380Y-84867619D01*
X128492380Y-85105714D01*
X128492380Y-84105714D02*
X127492380Y-84105714D01*
X128492380Y-83534285D01*
X127492380Y-83534285D01*
X128492380Y-83058095D02*
X127492380Y-83058095D01*
X127492380Y-82677142D01*
X127540000Y-82581904D01*
X127587619Y-82534285D01*
X127682857Y-82486666D01*
X127825714Y-82486666D01*
X127920952Y-82534285D01*
X127968571Y-82581904D01*
X128016190Y-82677142D01*
X128016190Y-83058095D01*
D13*
X129720952Y-84458095D02*
X129530476Y-84591428D01*
X129720952Y-84686666D02*
X129320952Y-84686666D01*
X129320952Y-84534285D01*
X129340000Y-84496190D01*
X129359047Y-84477142D01*
X129397142Y-84458095D01*
X129454285Y-84458095D01*
X129492380Y-84477142D01*
X129511428Y-84496190D01*
X129530476Y-84534285D01*
X129530476Y-84686666D01*
X129720952Y-84077142D02*
X129720952Y-84305714D01*
X129720952Y-84191428D02*
X129320952Y-84191428D01*
X129378095Y-84229523D01*
X129416190Y-84267619D01*
X129435238Y-84305714D01*
X129320952Y-83829523D02*
X129320952Y-83791428D01*
X129340000Y-83753333D01*
X129359047Y-83734285D01*
X129397142Y-83715238D01*
X129473333Y-83696190D01*
X129568571Y-83696190D01*
X129644761Y-83715238D01*
X129682857Y-83734285D01*
X129701904Y-83753333D01*
X129720952Y-83791428D01*
X129720952Y-83829523D01*
X129701904Y-83867619D01*
X129682857Y-83886666D01*
X129644761Y-83905714D01*
X129568571Y-83924761D01*
X129473333Y-83924761D01*
X129397142Y-83905714D01*
X129359047Y-83886666D01*
X129340000Y-83867619D01*
X129320952Y-83829523D01*
X129320952Y-83448571D02*
X129320952Y-83410476D01*
X129340000Y-83372380D01*
X129359047Y-83353333D01*
X129397142Y-83334285D01*
X129473333Y-83315238D01*
X129568571Y-83315238D01*
X129644761Y-83334285D01*
X129682857Y-83353333D01*
X129701904Y-83372380D01*
X129720952Y-83410476D01*
X129720952Y-83448571D01*
X129701904Y-83486666D01*
X129682857Y-83505714D01*
X129644761Y-83524761D01*
X129568571Y-83543809D01*
X129473333Y-83543809D01*
X129397142Y-83524761D01*
X129359047Y-83505714D01*
X129340000Y-83486666D01*
X129320952Y-83448571D01*
X129320952Y-83181904D02*
X129320952Y-82915238D01*
X129720952Y-83086666D01*
D12*
X133016380Y-85105714D02*
X132016380Y-85105714D01*
X132016380Y-84867619D01*
X132064000Y-84724761D01*
X132159238Y-84629523D01*
X132254476Y-84581904D01*
X132444952Y-84534285D01*
X132587809Y-84534285D01*
X132778285Y-84581904D01*
X132873523Y-84629523D01*
X132968761Y-84724761D01*
X133016380Y-84867619D01*
X133016380Y-85105714D01*
X133016380Y-84105714D02*
X132016380Y-84105714D01*
X133016380Y-83534285D01*
X132016380Y-83534285D01*
X133016380Y-83058095D02*
X132016380Y-83058095D01*
X132016380Y-82677142D01*
X132064000Y-82581904D01*
X132111619Y-82534285D01*
X132206857Y-82486666D01*
X132349714Y-82486666D01*
X132444952Y-82534285D01*
X132492571Y-82581904D01*
X132540190Y-82677142D01*
X132540190Y-83058095D01*
D13*
X131244952Y-84458095D02*
X131054476Y-84591428D01*
X131244952Y-84686666D02*
X130844952Y-84686666D01*
X130844952Y-84534285D01*
X130864000Y-84496190D01*
X130883047Y-84477142D01*
X130921142Y-84458095D01*
X130978285Y-84458095D01*
X131016380Y-84477142D01*
X131035428Y-84496190D01*
X131054476Y-84534285D01*
X131054476Y-84686666D01*
X131244952Y-84077142D02*
X131244952Y-84305714D01*
X131244952Y-84191428D02*
X130844952Y-84191428D01*
X130902095Y-84229523D01*
X130940190Y-84267619D01*
X130959238Y-84305714D01*
X130844952Y-83829523D02*
X130844952Y-83791428D01*
X130864000Y-83753333D01*
X130883047Y-83734285D01*
X130921142Y-83715238D01*
X130997333Y-83696190D01*
X131092571Y-83696190D01*
X131168761Y-83715238D01*
X131206857Y-83734285D01*
X131225904Y-83753333D01*
X131244952Y-83791428D01*
X131244952Y-83829523D01*
X131225904Y-83867619D01*
X131206857Y-83886666D01*
X131168761Y-83905714D01*
X131092571Y-83924761D01*
X130997333Y-83924761D01*
X130921142Y-83905714D01*
X130883047Y-83886666D01*
X130864000Y-83867619D01*
X130844952Y-83829523D01*
X130844952Y-83448571D02*
X130844952Y-83410476D01*
X130864000Y-83372380D01*
X130883047Y-83353333D01*
X130921142Y-83334285D01*
X130997333Y-83315238D01*
X131092571Y-83315238D01*
X131168761Y-83334285D01*
X131206857Y-83353333D01*
X131225904Y-83372380D01*
X131244952Y-83410476D01*
X131244952Y-83448571D01*
X131225904Y-83486666D01*
X131206857Y-83505714D01*
X131168761Y-83524761D01*
X131092571Y-83543809D01*
X130997333Y-83543809D01*
X130921142Y-83524761D01*
X130883047Y-83505714D01*
X130864000Y-83486666D01*
X130844952Y-83448571D01*
X130844952Y-82972380D02*
X130844952Y-83048571D01*
X130864000Y-83086666D01*
X130883047Y-83105714D01*
X130940190Y-83143809D01*
X131016380Y-83162857D01*
X131168761Y-83162857D01*
X131206857Y-83143809D01*
X131225904Y-83124761D01*
X131244952Y-83086666D01*
X131244952Y-83010476D01*
X131225904Y-82972380D01*
X131206857Y-82953333D01*
X131168761Y-82934285D01*
X131073523Y-82934285D01*
X131035428Y-82953333D01*
X131016380Y-82972380D01*
X130997333Y-83010476D01*
X130997333Y-83086666D01*
X131016380Y-83124761D01*
X131035428Y-83143809D01*
X131073523Y-83162857D01*
D12*
X127905571Y-75025380D02*
X127334142Y-75025380D01*
X127619857Y-75025380D02*
X127619857Y-74025380D01*
X127524619Y-74168238D01*
X127429380Y-74263476D01*
X127334142Y-74311095D01*
X128762714Y-74358714D02*
X128762714Y-75025380D01*
X128334142Y-74358714D02*
X128334142Y-74882523D01*
X128381761Y-74977761D01*
X128477000Y-75025380D01*
X128619857Y-75025380D01*
X128715095Y-74977761D01*
X128762714Y-74930142D01*
X130715095Y-73977761D02*
X129857952Y-75263476D01*
X131715095Y-74025380D02*
X132381761Y-75025380D01*
X132381761Y-74025380D02*
X131715095Y-75025380D01*
X132667476Y-74025380D02*
X133334142Y-74025380D01*
X132905571Y-75025380D01*
X134286523Y-75025380D02*
X133953190Y-74549190D01*
X133715095Y-75025380D02*
X133715095Y-74025380D01*
X134096047Y-74025380D01*
X134191285Y-74073000D01*
X134238904Y-74120619D01*
X134286523Y-74215857D01*
X134286523Y-74358714D01*
X134238904Y-74453952D01*
X134191285Y-74501571D01*
X134096047Y-74549190D01*
X133715095Y-74549190D01*
X136191285Y-73977761D02*
X135334142Y-75263476D01*
X137810333Y-75025380D02*
X137238904Y-75025380D01*
X137524619Y-75025380D02*
X137524619Y-74025380D01*
X137429380Y-74168238D01*
X137334142Y-74263476D01*
X137238904Y-74311095D01*
X138667476Y-74025380D02*
X138477000Y-74025380D01*
X138381761Y-74073000D01*
X138334142Y-74120619D01*
X138238904Y-74263476D01*
X138191285Y-74453952D01*
X138191285Y-74834904D01*
X138238904Y-74930142D01*
X138286523Y-74977761D01*
X138381761Y-75025380D01*
X138572238Y-75025380D01*
X138667476Y-74977761D01*
X138715095Y-74930142D01*
X138762714Y-74834904D01*
X138762714Y-74596809D01*
X138715095Y-74501571D01*
X138667476Y-74453952D01*
X138572238Y-74406333D01*
X138381761Y-74406333D01*
X138286523Y-74453952D01*
X138238904Y-74501571D01*
X138191285Y-74596809D01*
X139048428Y-74025380D02*
X139381761Y-75025380D01*
X139715095Y-74025380D01*
D13*
X132998428Y-76180142D02*
X132984142Y-76194428D01*
X132941285Y-76208714D01*
X132912714Y-76208714D01*
X132869857Y-76194428D01*
X132841285Y-76165857D01*
X132827000Y-76137285D01*
X132812714Y-76080142D01*
X132812714Y-76037285D01*
X132827000Y-75980142D01*
X132841285Y-75951571D01*
X132869857Y-75923000D01*
X132912714Y-75908714D01*
X132941285Y-75908714D01*
X132984142Y-75923000D01*
X132998428Y-75937285D01*
X133284142Y-76208714D02*
X133112714Y-76208714D01*
X133198428Y-76208714D02*
X133198428Y-75908714D01*
X133169857Y-75951571D01*
X133141285Y-75980142D01*
X133112714Y-75994428D01*
X133469857Y-75908714D02*
X133498428Y-75908714D01*
X133527000Y-75923000D01*
X133541285Y-75937285D01*
X133555571Y-75965857D01*
X133569857Y-76023000D01*
X133569857Y-76094428D01*
X133555571Y-76151571D01*
X133541285Y-76180142D01*
X133527000Y-76194428D01*
X133498428Y-76208714D01*
X133469857Y-76208714D01*
X133441285Y-76194428D01*
X133427000Y-76180142D01*
X133412714Y-76151571D01*
X133398428Y-76094428D01*
X133398428Y-76023000D01*
X133412714Y-75965857D01*
X133427000Y-75937285D01*
X133441285Y-75923000D01*
X133469857Y-75908714D01*
X133755571Y-75908714D02*
X133784142Y-75908714D01*
X133812714Y-75923000D01*
X133827000Y-75937285D01*
X133841285Y-75965857D01*
X133855571Y-76023000D01*
X133855571Y-76094428D01*
X133841285Y-76151571D01*
X133827000Y-76180142D01*
X133812714Y-76194428D01*
X133784142Y-76208714D01*
X133755571Y-76208714D01*
X133727000Y-76194428D01*
X133712714Y-76180142D01*
X133698428Y-76151571D01*
X133684142Y-76094428D01*
X133684142Y-76023000D01*
X133698428Y-75965857D01*
X133712714Y-75937285D01*
X133727000Y-75923000D01*
X133755571Y-75908714D01*
X134112714Y-76008714D02*
X134112714Y-76208714D01*
X134041285Y-75894428D02*
X133969857Y-76108714D01*
X134155571Y-76108714D01*
D12*
X124857571Y-78025380D02*
X124286142Y-78025380D01*
X124571857Y-78025380D02*
X124571857Y-77025380D01*
X124476619Y-77168238D01*
X124381380Y-77263476D01*
X124286142Y-77311095D01*
X125714714Y-77358714D02*
X125714714Y-78025380D01*
X125286142Y-77358714D02*
X125286142Y-77882523D01*
X125333761Y-77977761D01*
X125429000Y-78025380D01*
X125571857Y-78025380D01*
X125667095Y-77977761D01*
X125714714Y-77930142D01*
X127667095Y-76977761D02*
X126809952Y-78263476D01*
X128667095Y-77025380D02*
X129333761Y-78025380D01*
X129333761Y-77025380D02*
X128667095Y-78025380D01*
X129619476Y-77025380D02*
X130286142Y-77025380D01*
X129857571Y-78025380D01*
X131238523Y-78025380D02*
X130905190Y-77549190D01*
X130667095Y-78025380D02*
X130667095Y-77025380D01*
X131048047Y-77025380D01*
X131143285Y-77073000D01*
X131190904Y-77120619D01*
X131238523Y-77215857D01*
X131238523Y-77358714D01*
X131190904Y-77453952D01*
X131143285Y-77501571D01*
X131048047Y-77549190D01*
X130667095Y-77549190D01*
X133143285Y-76977761D02*
X132286142Y-78263476D01*
X134762333Y-78025380D02*
X134190904Y-78025380D01*
X134476619Y-78025380D02*
X134476619Y-77025380D01*
X134381380Y-77168238D01*
X134286142Y-77263476D01*
X134190904Y-77311095D01*
X135619476Y-77025380D02*
X135429000Y-77025380D01*
X135333761Y-77073000D01*
X135286142Y-77120619D01*
X135190904Y-77263476D01*
X135143285Y-77453952D01*
X135143285Y-77834904D01*
X135190904Y-77930142D01*
X135238523Y-77977761D01*
X135333761Y-78025380D01*
X135524238Y-78025380D01*
X135619476Y-77977761D01*
X135667095Y-77930142D01*
X135714714Y-77834904D01*
X135714714Y-77596809D01*
X135667095Y-77501571D01*
X135619476Y-77453952D01*
X135524238Y-77406333D01*
X135333761Y-77406333D01*
X135238523Y-77453952D01*
X135190904Y-77501571D01*
X135143285Y-77596809D01*
X136000428Y-77025380D02*
X136333761Y-78025380D01*
X136667095Y-77025380D01*
D13*
X129950428Y-76180142D02*
X129936142Y-76194428D01*
X129893285Y-76208714D01*
X129864714Y-76208714D01*
X129821857Y-76194428D01*
X129793285Y-76165857D01*
X129779000Y-76137285D01*
X129764714Y-76080142D01*
X129764714Y-76037285D01*
X129779000Y-75980142D01*
X129793285Y-75951571D01*
X129821857Y-75923000D01*
X129864714Y-75908714D01*
X129893285Y-75908714D01*
X129936142Y-75923000D01*
X129950428Y-75937285D01*
X130236142Y-76208714D02*
X130064714Y-76208714D01*
X130150428Y-76208714D02*
X130150428Y-75908714D01*
X130121857Y-75951571D01*
X130093285Y-75980142D01*
X130064714Y-75994428D01*
X130421857Y-75908714D02*
X130450428Y-75908714D01*
X130479000Y-75923000D01*
X130493285Y-75937285D01*
X130507571Y-75965857D01*
X130521857Y-76023000D01*
X130521857Y-76094428D01*
X130507571Y-76151571D01*
X130493285Y-76180142D01*
X130479000Y-76194428D01*
X130450428Y-76208714D01*
X130421857Y-76208714D01*
X130393285Y-76194428D01*
X130379000Y-76180142D01*
X130364714Y-76151571D01*
X130350428Y-76094428D01*
X130350428Y-76023000D01*
X130364714Y-75965857D01*
X130379000Y-75937285D01*
X130393285Y-75923000D01*
X130421857Y-75908714D01*
X130707571Y-75908714D02*
X130736142Y-75908714D01*
X130764714Y-75923000D01*
X130779000Y-75937285D01*
X130793285Y-75965857D01*
X130807571Y-76023000D01*
X130807571Y-76094428D01*
X130793285Y-76151571D01*
X130779000Y-76180142D01*
X130764714Y-76194428D01*
X130736142Y-76208714D01*
X130707571Y-76208714D01*
X130679000Y-76194428D01*
X130664714Y-76180142D01*
X130650428Y-76151571D01*
X130636142Y-76094428D01*
X130636142Y-76023000D01*
X130650428Y-75965857D01*
X130664714Y-75937285D01*
X130679000Y-75923000D01*
X130707571Y-75908714D01*
X130907571Y-75908714D02*
X131093285Y-75908714D01*
X130993285Y-76023000D01*
X131036142Y-76023000D01*
X131064714Y-76037285D01*
X131079000Y-76051571D01*
X131093285Y-76080142D01*
X131093285Y-76151571D01*
X131079000Y-76180142D01*
X131064714Y-76194428D01*
X131036142Y-76208714D01*
X130950428Y-76208714D01*
X130921857Y-76194428D01*
X130907571Y-76180142D01*
M02*
